<svg width="240" height="240" viewBox="0 0 240 240" fill="none" xmlns="http://www.w3.org/2000/svg">
<path d="M44.01 131V110H52.17C53.87 110 55.28 110.3 56.4 110.9C57.54 111.48 58.38 112.26 58.92 113.24C59.48 114.22 59.76 115.31 59.76 116.51C59.76 117.63 59.49 118.68 58.95 119.66C58.43 120.64 57.61 121.43 56.49 122.03C55.37 122.63 53.92 122.93 52.14 122.93H48.51V131H44.01ZM54.84 131L50.61 121.82H55.44L59.94 131H54.84ZM48.51 119.69H51.9C53.02 119.69 53.84 119.42 54.36 118.88C54.9 118.34 55.17 117.61 55.17 116.69C55.17 115.79 54.9 115.08 54.36 114.56C53.84 114.02 53.02 113.75 51.9 113.75H48.51V119.69ZM61.8188 131L69.4688 110H74.6288L82.2788 131H77.5088L72.0188 115.07L66.5288 131H61.8188ZM65.1488 126.41L66.3488 122.93H77.3588L78.5288 126.41H65.1488ZM87.5712 131V113.63H81.4812V110H98.1612V113.63H92.0712V131H87.5712ZM100.963 131V110H115.033V113.63H105.463V118.58H114.133V122.06H105.463V127.37H115.033V131H100.963ZM129.567 131L124.137 110H128.937L132.327 125.96L136.407 110H141.387L145.317 125.93L148.737 110H153.597L147.987 131H142.587L138.837 116.33L134.967 131H129.567ZM156.364 131V110H160.864V131H156.364ZM172.269 131.36C170.769 131.36 169.409 131.11 168.189 130.61C166.989 130.09 166.039 129.33 165.339 128.33C164.639 127.33 164.259 126.1 164.199 124.64H168.999C169.019 125.22 169.169 125.73 169.449 126.17C169.729 126.61 170.109 126.96 170.589 127.22C171.069 127.46 171.629 127.58 172.269 127.58C172.809 127.58 173.279 127.5 173.679 127.34C174.099 127.16 174.429 126.91 174.669 126.59C174.909 126.25 175.029 125.83 175.029 125.33C175.029 124.81 174.889 124.37 174.609 124.01C174.329 123.63 173.949 123.31 173.469 123.05C172.989 122.77 172.429 122.52 171.789 122.3C171.169 122.06 170.499 121.83 169.779 121.61C168.119 121.07 166.839 120.34 165.939 119.42C165.059 118.5 164.619 117.27 164.619 115.73C164.619 114.45 164.929 113.36 165.549 112.46C166.189 111.54 167.059 110.84 168.159 110.36C169.259 109.88 170.509 109.64 171.909 109.64C173.349 109.64 174.619 109.89 175.719 110.39C176.819 110.87 177.689 111.58 178.329 112.52C178.969 113.44 179.309 114.54 179.349 115.82H174.519C174.499 115.38 174.369 114.98 174.129 114.62C173.909 114.26 173.599 113.97 173.199 113.75C172.819 113.53 172.369 113.42 171.849 113.42C171.389 113.4 170.969 113.47 170.589 113.63C170.229 113.77 169.929 114 169.689 114.32C169.469 114.62 169.359 115 169.359 115.46C169.359 115.9 169.469 116.29 169.689 116.63C169.929 116.95 170.249 117.23 170.649 117.47C171.069 117.69 171.549 117.9 172.089 118.1C172.649 118.3 173.259 118.5 173.919 118.7C174.979 119.06 175.949 119.49 176.829 119.99C177.729 120.47 178.449 121.11 178.989 121.91C179.549 122.69 179.829 123.73 179.829 125.03C179.829 126.17 179.529 127.22 178.929 128.18C178.349 129.14 177.499 129.91 176.379 130.49C175.279 131.07 173.909 131.36 172.269 131.36ZM183.229 131V110H197.299V113.63H187.729V118.58H196.399V122.06H187.729V127.37H197.299V131H183.229Z" fill="white"/>
</svg>
